<svg id="Capa_1" data-name="Capa 1" xmlns="http://www.w3.org/2000/svg" viewBox="0 0 42.97 38.22"><defs><style>.cls-1{fill:#6e6e6e;}</style></defs><title>chat</title><path class="cls-1" d="M43,64.2A19.11,19.11,0,1,1,58.43,33.8l-.71.52a18.23,18.23,0,1,0,2.72,16.11l.84.26A19,19,0,0,1,43,64.2Z" transform="translate(-23.89 -25.98)"/><path class="cls-1" d="M43,61.05v-.61a15.35,15.35,0,1,0-12.73-6.77l-.51.34a16,16,0,1,1,13.23,7Z" transform="translate(-23.89 -25.98)"/><path class="cls-1" d="M35,54.36l1.44-4.6h-.17a2.53,2.53,0,0,1-2.53-2.53V39.41a2.53,2.53,0,0,1,2.53-2.53H48.93a2.53,2.53,0,0,1,2.53,2.53v7.83a2.53,2.53,0,0,1-2.53,2.53H39.82Zm1.27-16.61a1.66,1.66,0,0,0-1.65,1.65v7.83a1.66,1.66,0,0,0,1.65,1.65h1.37l-.78,2.5,2.62-2.5h9.46a1.66,1.66,0,0,0,1.65-1.65V39.41a1.66,1.66,0,0,0-1.65-1.65Z" transform="translate(-23.89 -25.98)"/><path class="cls-1" d="M60.86,36.37a1.28,1.28,0,1,1,.25,0Zm0-2.16-.17,0A.88.88,0,1,0,61,36a.88.88,0,0,0,.69-1,.88.88,0,0,0-.86-.71Z" transform="translate(-23.89 -25.98)"/><rect class="cls-1" x="41.15" y="20.47" width="0.4" height="3.23"/><rect class="cls-1" x="39.74" y="21.89" width="3.23" height="0.4"/></svg>