<svg id="Capa_1" data-name="Capa 1" xmlns="http://www.w3.org/2000/svg" viewBox="0 0 36.25 36.34"><defs><style>.cls-1{fill:#fff;}</style></defs><title>codigo</title><path class="cls-1" d="M41.94,61.89a.37.37,0,0,1,.37-.05c.4,0,.8.2,1.16-.11l0-4.31h0l.34.06a1,1,0,0,0,.94,0l.24-.24a5.91,5.91,0,0,0,0-2.37l-.06-.34h0v0l4.28,0c.06.46-.16.95.16,1.38a4.12,4.12,0,0,1,.55,0c.67.11.94-.11.87-.84a14.93,14.93,0,0,1,0-2.53c.06-.74-.12-1.1-.92-.94-.45.09-.63-.12-.55-.56,0-.28-.1-.58.11-.84l1,0c.44,0,.34-.35.31-.57s.25-.72-.25-.86c-.87-.24-1.19,0-1.17.89,0,.2-.06.43.11.6l-1.51,0c0-2.34.09-4.68-.05-7l0-.2,1.3.08c0,.37-.11.75.1,1.11l.05.17c.43.33.92.09,1.37.16l0,1.35v0l-.3,0a1,1,0,0,0-1,0c-.3.49-.42,1.12,0,1.42.64.42,1.2,0,1.21-.82,0-.18,0-.36,0-.55h2.8l0,1.45c-.34,0-.67,0-1,0s-.43.09-.45.43c0,.68,0,1.19.91,1a2.33,2.33,0,0,1,.54,0c0,.34,0,.69,0,1,0,.17,0,.34.23.41.84.21,1.19,0,1.19-.88,0-.18,0-.37,0-.55.74,0,1.48-.05,2.21,0,.57,0,.71-.17.69-.71s0-.86-.64-.72-.91-.23-.82-.87c0-.18,0-.37,0-.55.47,0,1,.19,1.4-.13V43h0v0l.31,0a11.29,11.29,0,0,0,2.54.1.08.08,0,0,1,0,.11c.07.85-.24,1.33-1.18,1.16,0,0-.09.05-.13.08-.26.42-.06.88-.13,1.31.1.33.39.24.59.21.68-.1.88.21.8.83a1,1,0,0,0,.05.3l0,.29v0h-1c-.15,0-.3,0-.38.19a.82.82,0,0,0,.78,1.23l.63,0h0c0,.47-.25,1,.18,1.41.91,0,2.14-.39,2.65.17s.14,1.7.15,2.6,0,1.59,0,2.38c0,.51-.15.64-.63.61a10.18,10.18,0,0,0-1.66,0c-.6.06-.69-.2-.68-.73s0-.8.65-.75,1.09-.54.82-1.24a.23.23,0,0,0-.22-.17H61.8c-.79,0-1.78-.32-2.3.14s-.12,1.4-.12,2.13-.29,1.5.11,1.91,1.25.11,1.9.13,1.22,0,1.82,0c.42,0,.55.14.54.55,0,1.59,0,3.17,0,4.76,0,.61-.35.53-.72.52s-.9.15-.77-.52c.17-.9-.3-1-1-.93a3.71,3.71,0,0,1-.48,0c-1.34,0-1.34,0-1.46,1.3l-.14.12-1.11,0a.11.11,0,0,0-.09-.09l-.06-1.28c-.43-.32-.92-.1-1.38-.16l0-1.27c-.43-.33-.92-.12-1.39-.15C55,58.9,55,58.9,53.58,58.9a2.82,2.82,0,0,0-.47,0c-.73.12-1.09-.1-.93-.9.1-.49-.19-.55-.6-.54-1,0-2,0-3,0-.24,0-.53.15-.71-.16C48,55.92,48,55.84,46.62,56a.48.48,0,0,0-.14.06.15.15,0,0,1-.07.11,5.66,5.66,0,0,0,0,2.71l.18.05a31.17,31.17,0,0,0,4.07.11l0,2.85h0l-.32-.05c-.86,0-1.25-.38-1.11-1.25,0,0-.05-.08-.08-.13h0l0,0a5.69,5.69,0,0,0-2.72,0l0,0a10.44,10.44,0,0,0-.13,2.8,38,38,0,0,1-4.11,0l-.11-.11c-.12-.41.08-.84-.12-1.24Zm16-3.06c0-.44.2-1-.12-1.28a1.09,1.09,0,0,0-1.13,0c-.41.23-.19.77-.16,1.16s.42.19.65.2a1.28,1.28,0,0,0,.77-.07c0,1.54,0,1.54,1.48,1.54a7.27,7.27,0,0,1,.87,0c.61.07.53-.33.52-.7s.14-.8-.53-.78A11.13,11.13,0,0,1,57.92,58.83Zm-1.49-4.95h.05c0-.58,0-1.16,0-1.74,0-.34-.09-.46-.44-.45-.61,0-1.21,0-1.82,0s-1.54-.22-1.9.11-.13,1.29-.13,2-.33,1.7.14,2.11,1.35.12,2.06.1,1.61.3,2-.13S56.43,54.57,56.43,53.89ZM59.34,51c.1-.54,0-.83-.66-.78s-.81.05-.77.71.05.81.71.77S59.52,51.69,59.34,51Z" transform="translate(-27.59 -27.04)"/><path class="cls-1" d="M63.75,32.18c0,1.51,0,3,0,4.52,0,.45-.13.58-.58.57q-4.52,0-9,0c-.4,0-.54-.08-.54-.52q0-4.56,0-9.12c0-.44.16-.52.55-.51,3,0,6,0,9,0,.56,0,.64.22.64.7C63.73,29.27,63.75,30.73,63.75,32.18Zm-5.11-3.56c-1,0-2.06,0-3.09,0-.36,0-.51.06-.5.47q0,3.13,0,6.26c0,.38.1.49.48.49q3.13,0,6.26,0c.4,0,.48-.14.48-.5q0-3.09,0-6.18c0-.41-.12-.55-.54-.54C60.7,28.64,59.67,28.63,58.64,28.63Z" transform="translate(-27.59 -27.04)"/><path class="cls-1" d="M32.59,37.26c-1.45,0-2.91,0-4.36,0-.46,0-.64-.07-.63-.59,0-3,0-6,0-9,0-.45.13-.59.58-.59q4.52,0,9,0c.51,0,.53.22.53.62,0,3,0,6,0,9,0,.45-.12.57-.57.57C35.66,37.25,34.12,37.26,32.59,37.26Zm.09-1.43c1,0,2.06,0,3.09,0,.4,0,.55-.09.54-.52q0-3.09,0-6.19c0-.44-.17-.52-.56-.52q-3.05,0-6.11,0c-.44,0-.6.12-.59.58q0,3.05,0,6.11c0,.41.11.55.53.54C30.62,35.81,31.65,35.83,32.68,35.83Z" transform="translate(-27.59 -27.04)"/><path class="cls-1" d="M37.75,58.24c0,1.48,0,3,0,4.44,0,.5-.14.61-.62.61q-4.44,0-8.88,0c-.51,0-.67-.13-.67-.66q0-4.44,0-8.88c0-.56.2-.63.68-.63q4.44,0,8.88,0c.48,0,.63.1.61.6C37.72,55.23,37.75,56.74,37.75,58.24Zm-1.44-.11c0-1,0-2,0-3,0-.38-.05-.57-.51-.56-2.09,0-4.17,0-6.26,0-.39,0-.49.14-.49.51,0,2.06,0,4.12,0,6.18,0,.47.17.58.6.57,2,0,4.07,0,6.1,0,.48,0,.57-.18.56-.6C36.29,60.2,36.31,59.16,36.31,58.13Z" transform="translate(-27.59 -27.04)"/><path class="cls-1" d="M50.75,40.11c0,1.47,0,1.47,1.47,1.47,1.22,0,2.43,0,3.65,0,.46,0,.67-.08.63-.6s0-1.17,0-1.74.35-.56.74-.56.84-.13.73.55,0,1,.8.92c.54,0,.7-.21.61-.69-.13-.7.2-.83.83-.8a24.21,24.21,0,0,0,2.85,0c.63,0,.72.2.74.76s-.21.8-.77.71a2.5,2.5,0,0,0-.4,0A4.69,4.69,0,0,0,61,40.2c-.57.22.09,1-.38,1.38-.52,0-1-.06-1.57-.06-1.27,0-1.27,0-1.21,1.3a1,1,0,0,0,0,.15h0c-.47,0-1-.25-1.41.17l0,2.69H53.64a2.29,2.29,0,0,1,0-.47c.13-.72-.17-1-.88-.87-.44.08-.62-.09-.57-.55a5.79,5.79,0,0,0,0-.79c-.09-.31-.34-.18-.53-.19-.77,0-1.53,0-2.3,0h0a4.16,4.16,0,0,0-.06-1.14L49,41.6a4,4,0,0,0-1.15-.06h0V38.69h1.44l0,0c-.09,1.48-.09,1.48,1.37,1.45h.08Z" transform="translate(-27.59 -27.04)"/><path class="cls-1" d="M27.63,51.54V46.15c1.13-.32,1.25-.24,1.36.88,0,.16,0,.32.21.37.44-.08.91.13,1.33-.14a1.39,1.39,0,0,0,.09-.45c-.1-.68.21-.86.84-.81a14.78,14.78,0,0,0,1.65,0,.44.44,0,0,0,.33-.33,2,2,0,0,0,0-1,.07.07,0,0,1,.05-.11h1.31a6.11,6.11,0,0,1,.08,1.32,2.73,2.73,0,0,0,1.36.09c0,.44-.08,1,.15,1.29s.9,0,1.35.16l0,0c0,1.42,0,1.42-1.35,1.42h-.16c-1.41,0-1.41,0-1.33,1.41l0,0c-1.52.18-1.52.18-1.52-1.28a3.9,3.9,0,0,1,0-.71c.14-.75-.22-.87-.87-.84-.47,0-.58.17-.55.59s0,1,0,1.5c.08.68-.19.82-.83.82s-.76-.21-.67-.73-.21-.73-.78-.76-.69.33-.67.81a11.17,11.17,0,0,0,0,1.18c.13.8-.21,1-.94.9a3.65,3.65,0,0,0-.39,0Z" transform="translate(-27.59 -27.04)"/><path class="cls-1" d="M42,45.68l0,.15h-2.8c0-.76,0-1.53,0-2.29,0-.43-.13-.54-.54-.53-1,0-2.06,0-3.09,0-.53,0-.8-.1-.7-.68s-.17-.87-.78-.76-.77-.15-.67-.69-.18-.87-.78-.76-.68-.21-.66-.71,0-.77.64-.76c2.45,0,4.91,0,7.36,0,.59,0,.67.2.66.72,0,1.66,0,3.32,0,5,.4.41.89.13,1.33.18h0Zm-4.36-4.1h1.11c.18,0,.33,0,.4-.25.2-.88,0-1.19-.9-1.19H36.7c-.19,0-.34,0-.4.26-.2.87,0,1.18.9,1.18Z" transform="translate(-27.59 -27.04)"/><path class="cls-1" d="M42,57.58v1.11c-.18.43-.55.19-.81.2-.65,0-1.51.23-1.91-.1s-.12-1.24-.13-1.89c0-1.9,0-3.8,0-5.7,0-.84.24-1.07,1-.94a3.77,3.77,0,0,0,.47,0l0,0c0,.21,0,.42,0,.63,0,.73-.32,1.75.14,2.11s1.46.09,2.22.14c.44,0,.57-.15.5-.54-.16-.8.21-1,.94-.9a2.82,2.82,0,0,0,.47,0c.32-.44.1-.93.16-1.4l2.7,0a4.69,4.69,0,0,1,0,1.43,7.36,7.36,0,0,1-.79,0c-.39,0-.63.07-.54.51.18.86-.26,1-1,.93a2.83,2.83,0,0,0-.4,0c-.32.45-.11.94-.14,1.42h0a3.41,3.41,0,0,1-.63,0c-.67-.11-.85.18-.8.82s0,1.36,0,2H42c0-.79,0-1.58,0-2.37,0-.19.09-.4-.24-.48-.85-.21-1.19,0-1.19.89,0,.53,0,1.06,0,1.58,0,.24,0,.42.31.45C41.27,57.68,41.65,57.56,42,57.58Z" transform="translate(-27.59 -27.04)"/><path class="cls-1" d="M49.32,30.24c0-.05.1-.15.15-.15.85.07,1.49,0,1.29-1.17-.09-.53.45-.3.71-.3s.68-.22.72.32c0,.18,0,.37,0,.55,0,2.85,0,5.7,0,8.54,0,.57.16.71.7.68a.87.87,0,0,1,.74,1.3c-.1.19-.27.14-.41.14l-2.45,0,0,0c-.1-1.39-.1-1.39-1.45-1.45l0,0a3.72,3.72,0,0,1,0-1.45h1.31A18,18,0,0,0,50.72,33a3,3,0,0,0-1.34.09v0a.43.43,0,0,1-.05-.39Q49.32,31.47,49.32,30.24Z" transform="translate(-27.59 -27.04)"/><path class="cls-1" d="M42.08,34.24a18.24,18.24,0,0,1,0-2c.06-.66-.21-.8-.79-.75s-1.11,0-1.66,0c-.35,0-.45-.11-.45-.45,0-1.16,0-2.32,0-3.48,0-.66.43-.45.75-.46s.79-.14.71.5a7.67,7.67,0,0,0,0,.87c.16.32.46.18.7.2.67.06,1.55-.29,2,.15s.14,1.31.12,2a17.38,17.38,0,0,1-.11,3.54H42.2Z" transform="translate(-27.59 -27.04)"/><path class="cls-1" d="M45,50.31c-.05.47.17,1-.16,1.4,0-.29,0-.58,0-.86s-.07-.66-.54-.57c-.77.15-1.05-.18-.91-.92s-.31-.52-.67-.52-.86-.13-.74.53-.17,1-.92.91a3.32,3.32,0,0,0-.55,0l0,0c0-.79,0-1.59,0-2.38,0-.43.13-.53.54-.52q2.38,0,4.76,0c.43,0,.6.16.51.55s.31.84-.4.91C44.81,49,44.78,49,45,50.31Z" transform="translate(-27.59 -27.04)"/><path class="cls-1" d="M48.07,34.38c-.41-.14-.22-.49-.2-.72,0-.54-.11-.79-.68-.69s-.84-.17-.82-.82q.07-2.21,0-4.43c0-.71.41-.57.82-.59s.73,0,.72.62c0,1.32,0,2.64,0,4s0,1.2,1.14,1.28c-1.2,0-1.3.18-1,1.33A.4.4,0,0,0,48.07,34.38Z" transform="translate(-27.59 -27.04)"/><path class="cls-1" d="M43.46,43.29c.09,1.16.09,1.16,1.26,1.16a5.51,5.51,0,0,0,.87,0c.73-.12.89.21.86.88s-.17.71-.69.66a5.3,5.3,0,0,0-1.18,0c-.83.1-1.33-.08-1.12-1.06.06-.3-.07-.43-.39-.41a4.86,4.86,0,0,1-.7-.05C43.2,44.5,43.59,44.14,43.46,43.29Z" transform="translate(-27.59 -27.04)"/><path class="cls-1" d="M59.49,44.49s.09-.08.13-.08c.94.16,1.24-.31,1.18-1.16a3.63,3.63,0,0,1,.05.39c0,.76.38,1,1.13.81.32-.08.24-.3.25-.49,0-.61,0-1.22,0-1.82s.44-.55.84-.58.78,0,.72.61a11.74,11.74,0,0,0,0,1.74c0,.49-.15.71-.63.62-.72-.13-.94.19-.84.86,0,.28,0,.68-.4.58-1.05-.22-1.13.43-1.12,1.18a1,1,0,0,1-.05-.3c.09-.62-.12-.92-.8-.83-.2,0-.49.12-.59-.21a2,2,0,0,0,1,.11c.17,0,.34,0,.42-.23.23-.75,0-1.16-.83-1.17Zm4.13-1.38c0-.21,0-.42,0-.63,0-.46,0-.78-.63-.79s-.63.35-.62.8a12.77,12.77,0,0,1,0,1.34c0,.46.16.58.59.58s.73-.05.66-.59A6,6,0,0,1,63.62,43.1Z" transform="translate(-27.59 -27.04)"/><path class="cls-1" d="M55.09,60.29c.47,0,1-.18,1.39.15-1.42-.14-1.42-.14-1.42,1.22a6.16,6.16,0,0,0,0,.87c.09.62-.14.8-.77.79s-.75-.14-.69-.7a8.46,8.46,0,0,0,0-1.58c-.05-.56.14-.76.7-.69A4.3,4.3,0,0,0,55.09,60.29Z" transform="translate(-27.59 -27.04)"/><path class="cls-1" d="M34.91,50.24c.71,0,1.42.06,2.12,0s.78.1.74.71,0,.87-.7.75a4.87,4.87,0,0,0-.86,0c-1.47,0-1.47,0-1.28-1.49Z" transform="translate(-27.59 -27.04)"/><path class="cls-1" d="M43.49,37.32a3.12,3.12,0,0,0,0,.55c.13.7-.15.9-.84.85-.46,0-.67-.1-.62-.61a7.8,7.8,0,0,0,0-1.57c-.07-.61.16-.73.74-.73s.83.12.73.73A4.92,4.92,0,0,0,43.49,37.32Z" transform="translate(-27.59 -27.04)"/><path class="cls-1" d="M46.32,37.27c-1.4,0-1.4,0-1.4-1.4v-.16c0-1.37,0-1.37,1.39-1.3Z" transform="translate(-27.59 -27.04)"/><path class="cls-1" d="M60.92,47.41a.14.14,0,0,1,.14,0,12.75,12.75,0,0,0,2.42,0,.11.11,0,0,1,.13,0V48.8l-2.85,0v0h0l.05-.32C61,48.18,60.89,47.79,60.92,47.41Z" transform="translate(-27.59 -27.04)"/><path class="cls-1" d="M43.3,34.38a17.38,17.38,0,0,0,.11-3.54c0-.68.3-1.55-.12-2s-1.3-.09-2-.15c-.24,0-.54.12-.7-.2a21.86,21.86,0,0,0,2.45.07c.48,0,.4-.28.4-.57,0-.87.36-1.13,1.21-.88.52.15.23.61.28.93s.11.57-.32.58a3.2,3.2,0,0,1-.48,0c-.51-.07-.68.12-.66.65,0,1.51,0,3,0,4.52C43.49,34,43.69,34.3,43.3,34.38Z" transform="translate(-27.59 -27.04)"/><path class="cls-1" d="M45.18,41.6a.36.36,0,0,1-.15,0,20.38,20.38,0,0,1,0-2.86l1.25,0v2.85Z" transform="translate(-27.59 -27.04)"/><path class="cls-1" d="M29.2,47.41C29,47.35,29,47.19,29,47c-.11-1.12-.23-1.2-1.36-.88.08-.42.43-.23.63-.21.58,0,.89-.1.79-.76,0-.23-.16-.61.18-.68a3,3,0,0,1,1.17,0c.25,0,.18.36.15.55-.13.77.24.93.91.87a15.16,15.16,0,0,1,1.65,0,14.78,14.78,0,0,1-1.65,0c-.64-.05-.94.12-.84.81a1.39,1.39,0,0,1-.09.45c0-.31,0-.62,0-.94,0-.15,0-.29-.2-.36-.75-.27-1.24.06-1.22.84A1,1,0,0,0,29.2,47.41Z" transform="translate(-27.59 -27.04)"/><path class="cls-1" d="M39.21,45.84H42a14,14,0,0,1-2.9.15H36.25a2.73,2.73,0,0,1-1.36-.09c.18,0,.37,0,.55,0,.64.1,1-.07.87-.82s.21-.68.72-.67.78,0,.75.66C37.72,46.06,37.85,46.1,39.21,45.84Z" transform="translate(-27.59 -27.04)"/><path class="cls-1" d="M30.44,40.19a.32.32,0,0,1,.12.35c-.13.76.07,1.17,1,1,.68-.11.46.45.5.8s0,.68-.54.69-1.15,0-1-.89c.09-.45-.13-.61-.57-.56a3.49,3.49,0,0,1-.62,0c1.1-.13,1.1-.13,1.13-1.3C30.43,40.24,30.43,40.22,30.44,40.19Z" transform="translate(-27.59 -27.04)"/><path class="cls-1" d="M49.26,60.43s.09.09.08.13c-.14.87.25,1.27,1.11,1.25a2.37,2.37,0,0,1-.55,0c-.52-.08-.61.16-.59.62,0,.76-.52,1.12-1.25.82-.47-.19-.16-.65-.22-1s-.09-.49.29-.52.86.19,1-.13A3.1,3.1,0,0,0,49.26,60.43Z" transform="translate(-27.59 -27.04)"/><path class="cls-1" d="M42.06,40.83c-.16-.64.18-.68.72-.73.73-.06.68.32.73.83.06.69-.3.65-.79.68C42.07,41.67,42,41.37,42.06,40.83Z" transform="translate(-27.59 -27.04)"/><path class="cls-1" d="M42,61.57a.11.11,0,0,1,0,.14c-.37,0-.76-.11-1.12.1l-.33,0v0l0,0a4.36,4.36,0,0,1,0-.71c0-.26-.18-.7.18-.75s.91-.3,1.26.19Z" transform="translate(-27.59 -27.04)"/><path class="cls-1" d="M37.81,46H39.1a.23.23,0,0,1,0,.07c.15,1.34.15,1.34-1.4,1.37l0,0A5.7,5.7,0,0,1,37.81,46Z" transform="translate(-27.59 -27.04)"/><path class="cls-1" d="M39.9,35.85c.59-.14.72.1.74.68s-.23.72-.79.75-.66-.26-.69-.76S39.34,35.72,39.9,35.85Z" transform="translate(-27.59 -27.04)"/><path class="cls-1" d="M47.93,35.85c1.33-.07,1.33-.07,1.4,1.4h0l-1.44,0Z" transform="translate(-27.59 -27.04)"/><path class="cls-1" d="M40.59,61.85c0,.21,0,.42,0,.63a.84.84,0,0,1-1.26.8c-.2-.08-.18-.23-.18-.38,0-.34,0-.68,0-1H40.6Z" transform="translate(-27.59 -27.04)"/><path class="cls-1" d="M40.61,33.77c.21.73-.32.58-.76.64-.8.12-.62-.4-.68-.85-.1-.77.41-.56.83-.62C40.72,32.83,40.65,33.29,40.61,33.77Z" transform="translate(-27.59 -27.04)"/><path class="cls-1" d="M52.13,61.88a3.16,3.16,0,0,1,.05.38c0,1.13-.26,1.3-1.42.87V61.88h1.37Z" transform="translate(-27.59 -27.04)"/><path class="cls-1" d="M27.75,38.73h1.11l.11.14L29,40.11H27.75L27.63,40V38.85Z" transform="translate(-27.59 -27.04)"/><path class="cls-1" d="M43.46,43.29c.13.85-.26,1.21-1.09,1.17l-.36.1h-.07a.05.05,0,0,0-.06,0c.36-.41,0-.93.21-1.36h1.34a.8.8,0,0,1,0,.1A.14.14,0,0,1,43.46,43.29Z" transform="translate(-27.59 -27.04)"/><path class="cls-1" d="M30.44,40.19s0,.05,0,.08c0,1.17,0,1.17-1.13,1.3-.08,0-.16,0-.2-.07a1.29,1.29,0,0,0,0-1.06L29,40.12h0Z" transform="translate(-27.59 -27.04)"/><path class="cls-1" d="M46.48,37.25h1.27v1.45H46.48Z" transform="translate(-27.59 -27.04)"/><path class="cls-1" d="M48.07,34.38a.4.4,0,0,1,0-.07c-.31-1.15-.21-1.29,1-1.33h.16v1.37Z" transform="translate(-27.59 -27.04)"/><path class="cls-1" d="M27.62,42.82l0-1.11L29,41.65l.06.14q0,.56,0,1.11l-.1.1C28.51,42.89,28,43.08,27.62,42.82Z" transform="translate(-27.59 -27.04)"/><path class="cls-1" d="M46.61,43a.26.26,0,0,1-.14,0l0-1.17v0c.34-.29.79,0,1.14-.21h.17l.13,0h0l0,.14v.16a1.8,1.8,0,0,0,0,1.23l-.27,0A1.77,1.77,0,0,0,46.61,43Z" transform="translate(-27.59 -27.04)"/><path class="cls-1" d="M47.74,51.69a4.69,4.69,0,0,0,0-1.43c0-2,0-4.1,0-6.15a1.56,1.56,0,0,1,.08-.85c.14,2.34,0,4.68.05,7C47.84,50.75,48.13,51.26,47.74,51.69Z" transform="translate(-27.59 -27.04)"/><path class="cls-1" d="M46.48,37.25v1.45l0,2.85a.09.09,0,0,1,0,.08l-.11-.1V34.41c.37.6.09,1.26.17,1.89A7.79,7.79,0,0,1,46.48,37.25Z" transform="translate(-27.59 -27.04)"/><path class="cls-1" d="M47.91,41.55l-.13,0,0-2.87V37.26c.13-.46-.18-1,.18-1.4l0,1.42v4.28Z" transform="translate(-27.59 -27.04)"/><path class="cls-1" d="M50.72,33a18,18,0,0,1-.05,4.28C50.81,35.84,50.7,34.41,50.72,33Z" transform="translate(-27.59 -27.04)"/><path class="cls-1" d="M50.71,59a31.17,31.17,0,0,1-4.07-.11l3.83,0A.22.22,0,0,1,50.71,59Z" transform="translate(-27.59 -27.04)"/><path class="cls-1" d="M57.91,43a1,1,0,0,1,0-.15c-.07-1.3-.07-1.31,1.21-1.3.52,0,1,0,1.57.06a17.76,17.76,0,0,1-1.88,0c-.66-.05-.91.17-.82.83a2.38,2.38,0,0,1,0,.54Z" transform="translate(-27.59 -27.04)"/><path class="cls-1" d="M45.07,38.71a20.38,20.38,0,0,0,0,2.86A4.83,4.83,0,0,1,45.07,38.71Z" transform="translate(-27.59 -27.04)"/><path class="cls-1" d="M46.31,63.23a10.44,10.44,0,0,1,.13-2.8A12.47,12.47,0,0,1,46.31,63.23Z" transform="translate(-27.59 -27.04)"/><path class="cls-1" d="M46.47,60.4a5.69,5.69,0,0,1,2.72,0Z" transform="translate(-27.59 -27.04)"/><path class="cls-1" d="M46.46,58.86a5.66,5.66,0,0,1,0-2.71Z" transform="translate(-27.59 -27.04)"/><path class="cls-1" d="M46.48,56a.48.48,0,0,1,.14-.06c1.36-.13,1.43-.05,1.26,1.34C47.75,56,47.75,56,46.48,56Z" transform="translate(-27.59 -27.04)"/><path class="cls-1" d="M60.76,43.14a11.29,11.29,0,0,1-2.54-.1A6.75,6.75,0,0,1,60.76,43.14Z" transform="translate(-27.59 -27.04)"/><path class="cls-1" d="M63.48,47.41a12.75,12.75,0,0,1-2.42,0A15,15,0,0,1,63.48,47.41Z" transform="translate(-27.59 -27.04)"/><path class="cls-1" d="M49.32,30.24q0,1.23,0,2.46A13,13,0,0,1,49.32,30.24Z" transform="translate(-27.59 -27.04)"/><path class="cls-1" d="M29,40.12h0L29,38.85l0-.1A2.71,2.71,0,0,1,29,40.12Z" transform="translate(-27.59 -27.04)"/><path class="cls-1" d="M60.77,48.86v0c.22.46-.05,1,.18,1.44C60.51,49.84,60.81,49.33,60.77,48.86Z" transform="translate(-27.59 -27.04)"/><path class="cls-1" d="M63.61,48.8V47.43A1.31,1.31,0,0,1,63.61,48.8Z" transform="translate(-27.59 -27.04)"/><path class="cls-1" d="M27.62,42.82c.41.26.88.07,1.31.18C28.49,43,28,43.29,27.62,42.82Z" transform="translate(-27.59 -27.04)"/><path class="cls-1" d="M43.44,43.14H42.1A1.36,1.36,0,0,1,43.44,43.14Z" transform="translate(-27.59 -27.04)"/><path class="cls-1" d="M40.6,61.86H39.23a3,3,0,0,1,1.41,0Z" transform="translate(-27.59 -27.04)"/><path class="cls-1" d="M52.13,61.88H50.76A2.42,2.42,0,0,1,52.13,61.88Z" transform="translate(-27.59 -27.04)"/><path class="cls-1" d="M56.53,61.7c.46.06,1-.17,1.38.16C57.46,61.73,57,62,56.53,61.7Z" transform="translate(-27.59 -27.04)"/><path class="cls-1" d="M34.81,44.57H33.49A1.7,1.7,0,0,1,34.81,44.57Z" transform="translate(-27.59 -27.04)"/><path class="cls-1" d="M49.17,34.35V33a.13.13,0,0,1,.2.11v0C49.16,33.47,49.5,34,49.17,34.35Z" transform="translate(-27.59 -27.04)"/><path class="cls-1" d="M50.76,61.88v1.25a3.4,3.4,0,0,1,0-1.27Z" transform="translate(-27.59 -27.04)"/><path class="cls-1" d="M29,40.12h0a3.68,3.68,0,0,1-1.26,0Z" transform="translate(-27.59 -27.04)"/><path class="cls-1" d="M49.18,43.15l-1.3-.08h0a.12.12,0,0,1,0-.12l1.24,0Z" transform="translate(-27.59 -27.04)"/><path class="cls-1" d="M41.89,44.51a.05.05,0,0,1,.06,0c-.45,0-.94.23-1.33-.18Z" transform="translate(-27.59 -27.04)"/><path class="cls-1" d="M29,41.65l-1.32.06A1.68,1.68,0,0,1,29,41.65Z" transform="translate(-27.59 -27.04)"/><path class="cls-1" d="M60.92,47.41c0,.38.11.77-.1,1.13l-.06-1.13v0Z" transform="translate(-27.59 -27.04)"/><path class="cls-1" d="M47.89,43.07a1.8,1.8,0,0,1,0-1.23l.07,1.11a.12.12,0,0,0,0,.12Z" transform="translate(-27.59 -27.04)"/><path class="cls-1" d="M46.49,41.82l0,1.17c-.29-.37-.15-.77-.09-1.16l.05,0Z" transform="translate(-27.59 -27.04)"/><path class="cls-1" d="M40.92,61.81c.36-.21.74-.07,1.12-.1.06.11,0,.17-.1.18h0Z" transform="translate(-27.59 -27.04)"/><path class="cls-1" d="M43.47,61.73c-.36.31-.77.15-1.16.11Z" transform="translate(-27.59 -27.04)"/><path class="cls-1" d="M42,44.56H42a2.59,2.59,0,0,1,0,1.13Z" transform="translate(-27.59 -27.04)"/><path class="cls-1" d="M42.31,57.44h1.14A2.67,2.67,0,0,1,42.31,57.44Z" transform="translate(-27.59 -27.04)"/><path class="cls-1" d="M42,57.58c-.37,0-.75.1-1.1-.09L42,57.43h0a.54.54,0,0,1,0,.1S42,57.56,42,57.58Z" transform="translate(-27.59 -27.04)"/><path class="cls-1" d="M45.18,41.6l1.13-.06.11.1-.06,0A2.54,2.54,0,0,1,45.18,41.6Z" transform="translate(-27.59 -27.04)"/><path class="cls-1" d="M46.61,43a1.77,1.77,0,0,1,1,0A1.27,1.27,0,0,1,46.61,43Z" transform="translate(-27.59 -27.04)"/><path class="cls-1" d="M33.44,44.68a2,2,0,0,1,0,1A2.05,2.05,0,0,1,33.44,44.68Z" transform="translate(-27.59 -27.04)"/><path class="cls-1" d="M42,61.57v0Z" transform="translate(-27.59 -27.04)"/><path class="cls-1" d="M29,42.9q0-.55,0-1.11A2.53,2.53,0,0,1,29,42.9Z" transform="translate(-27.59 -27.04)"/><path class="cls-1" d="M42,58.69v0Z" transform="translate(-27.59 -27.04)"/><path class="cls-1" d="M29.08,40.44a1.29,1.29,0,0,1,0,1.06A2.29,2.29,0,0,1,29.08,40.44Z" transform="translate(-27.59 -27.04)"/><path class="cls-1" d="M46.36,41.65l.06,0a.08.08,0,0,0,0-.08h0v.25h-.05l-.05,0Z" transform="translate(-27.59 -27.04)"/><path class="cls-1" d="M42.08,34.24l.11.12C42.09,34.39,42,34.35,42.08,34.24Z" transform="translate(-27.59 -27.04)"/><path class="cls-1" d="M27.75,38.73l-.11.11C27.6,38.74,27.65,38.71,27.75,38.73Z" transform="translate(-27.59 -27.04)"/><path class="cls-1" d="M29,38.75l0,.1-.11-.14Z" transform="translate(-27.59 -27.04)"/><path class="cls-1" d="M27.63,51.54l.12.13C27.64,51.7,27.59,51.66,27.63,51.54Z" transform="translate(-27.59 -27.04)"/><path class="cls-1" d="M27.63,40l.12.14C27.63,40.12,27.6,40.07,27.63,40Z" transform="translate(-27.59 -27.04)"/><path class="cls-1" d="M42.09,63.13l.11.11Q42,63.29,42.09,63.13Z" transform="translate(-27.59 -27.04)"/><path class="cls-1" d="M58,63.14a.11.11,0,0,1,.09.09C58,63.26,57.94,63.23,58,63.14Z" transform="translate(-27.59 -27.04)"/><path class="cls-1" d="M59.18,63.25l.14-.12C59.34,63.25,59.28,63.28,59.18,63.25Z" transform="translate(-27.59 -27.04)"/><path class="cls-1" d="M56.47,45.83a3.24,3.24,0,0,0,1.45,0c-.44.32-.93.13-1.4.13H50.79l-.05,0,0-.05v0c1-.09,1.94.09,2.9-.1Z" transform="translate(-27.59 -27.04)"/><path class="cls-1" d="M45,57.25a14.63,14.63,0,0,1,0-2.37A5.91,5.91,0,0,1,45,57.25Z" transform="translate(-27.59 -27.04)"/><path class="cls-1" d="M49.17,54.62c.31.43,0,.93.16,1.38C49,55.56,49.23,55.07,49.17,54.62Z" transform="translate(-27.59 -27.04)"/><path class="cls-1" d="M45,53.13c-.2.46,0,1-.14,1.44v0C44.92,54.08,44.71,53.58,45,53.13Z" transform="translate(-27.59 -27.04)"/><path class="cls-1" d="M57.92,43c-.46.2-1-.06-1.43.17.43-.42.94-.14,1.41-.17Z" transform="translate(-27.59 -27.04)"/><path class="cls-1" d="M49.33,44.42c.45.11.94-.14,1.37.16C50.24,44.52,49.75,44.75,49.33,44.42Z" transform="translate(-27.59 -27.04)"/><path class="cls-1" d="M49.33,43.13l-.05,1.12c-.21-.35-.07-.74-.1-1.11V43h.16Z" transform="translate(-27.59 -27.04)"/><path class="cls-1" d="M50.45,45.93a2.31,2.31,0,0,1-1,0A1,1,0,0,1,50.45,45.93Z" transform="translate(-27.59 -27.04)"/><path class="cls-1" d="M43.79,57.49h.94A1,1,0,0,1,43.79,57.49Z" transform="translate(-27.59 -27.04)"/><path class="cls-1" d="M49.33,43.13V43c.77,0,1.53,0,2.3,0,.18,0,.44-.12.53.19Z" transform="translate(-27.59 -27.04)"/><path class="cls-1" d="M49.18,43c.06-.38-.07-.78.1-1.15A4.16,4.16,0,0,1,49.34,43Z" transform="translate(-27.59 -27.04)"/><path class="cls-1" d="M63.62,43.1a6.05,6.05,0,0,0,0,.71c.06.54-.24.58-.66.59s-.63-.11-.59-.58a12.77,12.77,0,0,0,0-1.34c0-.45,0-.8.62-.8s.67.32.63.79C63.61,42.68,63.62,42.89,63.62,43.1Z" transform="translate(-27.59 -27.04)"/><path class="cls-1" d="M46.46,41.56a3,3,0,0,1,1.15,0c-.35.22-.8-.08-1.14.21Z" transform="translate(-27.59 -27.04)"/><path class="cls-1" d="M54.42,54.56c-.49.06-.89.09-.82-.62,0-.5,0-.9.71-.82.5,0,.85,0,.75.7C55,54.25,55.15,54.77,54.42,54.56Z" transform="translate(-27.59 -27.04)"/><path class="cls-1" d="M55.06,48.86H53.61V47.41C55,47.36,55,47.36,55.06,48.86Z" transform="translate(-27.59 -27.04)"/><path class="cls-1" d="M60.81,32.38c-.07.57.31,1.51-.16,1.91s-1.31.1-2,.11-1.16,0-1.74,0c-.35,0-.46-.1-.45-.45,0-1.16,0-2.32,0-3.48,0-.31.1-.41.41-.41,1.16,0,2.32,0,3.48,0,.35,0,.46.1.45.45C60.8,31.09,60.81,31.67,60.81,32.38Z" transform="translate(-27.59 -27.04)"/><path class="cls-1" d="M34.82,32.18c0,.71.28,1.66-.07,2.06s-1.39.14-2.11.15-1.56.3-2-.12-.12-1.3-.13-2-.3-1.63.11-2.07,1.4-.14,2.13-.15,1.56-.3,2,.12S34.8,31.5,34.82,32.18Z" transform="translate(-27.59 -27.04)"/><path class="cls-1" d="M34.83,58.21c0,.68.27,1.6-.07,2s-1.34.12-2,.16c-.55,0-1.11,0-1.67,0s-.55-.14-.54-.55c0-1.11,0-2.22,0-3.33,0-.38.13-.5.51-.5,1.14,0,2.27,0,3.41,0,.35,0,.46.12.45.46,0,.58,0,1.16,0,1.74Z" transform="translate(-27.59 -27.04)"/></svg>