<svg id="Capa_1" data-name="Capa 1" xmlns="http://www.w3.org/2000/svg" viewBox="0 0 48.25 37.63"><defs><style>.cls-1{fill:#6e6e6e;}</style></defs><title>comercios</title><path class="cls-1" d="M46.08,52.05l-.71-1.61a5.08,5.08,0,0,1-2.75.36l-.08-1.24a4.66,4.66,0,0,0,2.6-.32,1.83,1.83,0,0,0,1.22-2.4C46,46,45.11,45.7,43.72,45.74c-1.91.07-3.24-.22-3.84-1.61a2.86,2.86,0,0,1,1.29-3.63l-.71-1.61,1-.43L42.13,40a4.64,4.64,0,0,1,2.32-.35l.06,1.23a4.21,4.21,0,0,0-2.25.33c-1.23.54-1.37,1.48-1.09,2.12.36.83,1.14,1,2.78,1,1.94,0,3.13.42,3.75,1.84A3,3,0,0,1,46.36,50l.73,1.66Z" transform="translate(-21.45 -26.81)"/><path class="cls-1" d="M33,64.44a3.78,3.78,0,0,1-3.46-2.26L21.76,44.27a3.78,3.78,0,0,1,1.95-5L51.62,27.12a3.68,3.68,0,0,1,2.84,0l12.84,5A3.78,3.78,0,0,1,69.44,37l-5,12.84a3.65,3.65,0,0,1-.49.86A3.73,3.73,0,0,1,62.36,52L34.55,64.12A3.76,3.76,0,0,1,33,64.44Zm20-36.63a2.8,2.8,0,0,0-1.14.25l-.1,0L24.11,40.21a2.78,2.78,0,0,0-1.43,3.65L30.5,61.77a2.78,2.78,0,0,0,3.65,1.43L62,51.06a2.72,2.72,0,0,0,1.14-.95,2.77,2.77,0,0,0,.37-.64l5-12.84A2.78,2.78,0,0,0,66.94,33L54.09,28A2.73,2.73,0,0,0,53.09,27.81Z" transform="translate(-21.45 -26.81)"/><path class="cls-1" d="M63.5,39.65a2.95,2.95,0,1,1,2.7-4.12h0a2.95,2.95,0,0,1-2.7,4.13Zm0-4.89a2,2,0,1,0,.71.14A1.94,1.94,0,0,0,63.49,34.76Z" transform="translate(-21.45 -26.81)"/></svg>