<svg id="Capa_1" data-name="Capa 1" xmlns="http://www.w3.org/2000/svg" viewBox="0 0 34.14 37.63"><defs><style>.cls-1{fill:#6e6e6e;}</style></defs><title>contactos</title><path class="cls-1" d="M58.55,63.61H38a4.33,4.33,0,0,1-4.32-4.32v-29A4.33,4.33,0,0,1,38,26h14.2v.91H38a3.41,3.41,0,0,0-3.41,3.41v29A3.41,3.41,0,0,0,38,62.69H58.55A3.41,3.41,0,0,0,62,59.29V39.62h.91V59.29A4.33,4.33,0,0,1,58.55,63.61Z" transform="translate(-28.74 -25.98)"/><path class="cls-1" d="M58.55,61.43H43.39v-.91H58.55a1.23,1.23,0,0,0,1.23-1.23v-29a1.23,1.23,0,0,0-1.23-1.23H38a1.23,1.23,0,0,0-1.23,1.23V50.63h-.91V30.31A2.15,2.15,0,0,1,38,28.16H58.55a2.15,2.15,0,0,1,2.14,2.14v29A2.15,2.15,0,0,1,58.55,61.43Z" transform="translate(-28.74 -25.98)"/><path class="cls-1" d="M48.29,44.36a3.76,3.76,0,1,1,3.76-3.76A3.76,3.76,0,0,1,48.29,44.36Zm0-6.6a2.84,2.84,0,1,0,2.84,2.84A2.85,2.85,0,0,0,48.29,37.76Z" transform="translate(-28.74 -25.98)"/><path class="cls-1" d="M55.32,52.29h-.91a6.11,6.11,0,0,0-12.23,0h-.91a7,7,0,0,1,14.06,0Z" transform="translate(-28.74 -25.98)"/><path class="cls-1" d="M31.67,38.63H29.58a.84.84,0,0,1-.84-.84V35.7a.84.84,0,0,1,.84-.84h2.09a.84.84,0,0,1,.84.84V37.8A.84.84,0,0,1,31.67,38.63Zm-2-.91h1.94V35.78H29.65Z" transform="translate(-28.74 -25.98)"/><path class="cls-1" d="M31.67,33.37H29.58a.84.84,0,0,1-.84-.84V30.44a.84.84,0,0,1,.84-.84h2.09a.84.84,0,0,1,.84.84v2.09A.84.84,0,0,1,31.67,33.37Zm-2-.91h1.94V30.52H29.65Z" transform="translate(-28.74 -25.98)"/><path class="cls-1" d="M31.67,43.9H29.58a.84.84,0,0,1-.84-.84V41a.84.84,0,0,1,.84-.84h2.09a.84.84,0,0,1,.84.84v2.09A.84.84,0,0,1,31.67,43.9Zm-2-.91h1.94V41H29.65Z" transform="translate(-28.74 -25.98)"/><path class="cls-1" d="M31.67,49.16H29.58a.84.84,0,0,1-.84-.84V46.22a.84.84,0,0,1,.84-.84h2.09a.84.84,0,0,1,.84.84v2.09A.84.84,0,0,1,31.67,49.16Zm-2-.91h1.94V46.3H29.65Z" transform="translate(-28.74 -25.98)"/><path class="cls-1" d="M31.67,54.42H29.58a.84.84,0,0,1-.84-.84V51.49a.84.84,0,0,1,.84-.84h2.09a.84.84,0,0,1,.84.84v2.09A.84.84,0,0,1,31.67,54.42Zm-2-.91h1.94V51.56H29.65Z" transform="translate(-28.74 -25.98)"/><path class="cls-1" d="M31.67,59.68H29.58a.84.84,0,0,1-.84-.84V56.75a.84.84,0,0,1,.84-.84h2.09a.84.84,0,0,1,.84.84v2.09A.84.84,0,0,1,31.67,59.68Zm-2-.91h1.94V56.82H29.65Z" transform="translate(-28.74 -25.98)"/></svg>