<svg id="Capa_1" data-name="Capa 1" xmlns="http://www.w3.org/2000/svg" viewBox="0 0 42.41 37.72"><defs><style>.cls-1{fill:#6e6e6e;}</style></defs><title>perfil</title><path class="cls-1" d="M43.27,64.14a18.86,18.86,0,1,1,15.22-30l-.7.51a18,18,0,1,0,2.69,15.9l.83.25A18.76,18.76,0,0,1,43.27,64.14Z" transform="translate(-24.41 -26.42)"/><path class="cls-1" d="M43.27,61v-.6a15.15,15.15,0,1,0-12.56-6.68l-.5.34A15.75,15.75,0,1,1,43.27,61Z" transform="translate(-24.41 -26.42)"/><path class="cls-1" d="M60.89,36.67a1.26,1.26,0,0,1-.24-2.5,1.26,1.26,0,0,1,.49,2.47Zm0-2.13-.17,0a.87.87,0,0,0-.68,1,.87.87,0,1,0,.85-1Z" transform="translate(-24.41 -26.42)"/><rect class="cls-1" x="40.62" y="20.2" width="0.39" height="3.19"/><rect class="cls-1" x="39.22" y="21.6" width="3.19" height="0.39"/><path class="cls-1" d="M42.87,44.62a4.48,4.48,0,1,1,4.48-4.48A4.49,4.49,0,0,1,42.87,44.62Zm0-8.1a3.62,3.62,0,1,0,3.62,3.62A3.62,3.62,0,0,0,42.87,36.52Z" transform="translate(-24.41 -26.42)"/><path class="cls-1" d="M51.36,54.47H50.5a7.63,7.63,0,1,0-15.26,0h-.86a8.49,8.49,0,1,1,17,0Z" transform="translate(-24.41 -26.42)"/></svg>