<svg id="Capa_1" data-name="Capa 1" xmlns="http://www.w3.org/2000/svg" viewBox="0 0 45.42 37.75"><defs><style>.cls-1{fill:#6e6e6e;}</style></defs><title>servicios</title><path class="cls-1" d="M28.41,64.2H24.54a2.1,2.1,0,0,1-2.1-2.1V58.23a2.1,2.1,0,0,1,2.1-2.1h3.87a2.1,2.1,0,0,1,2.1,2.1V62.1A2.1,2.1,0,0,1,28.41,64.2ZM24.54,57a1.23,1.23,0,0,0-1.22,1.22V62.1a1.23,1.23,0,0,0,1.22,1.22h3.87a1.23,1.23,0,0,0,1.22-1.22V58.23A1.23,1.23,0,0,0,28.41,57Z" transform="translate(-22.44 -26.45)"/><path class="cls-1" d="M28.41,54.31H24.54a2.1,2.1,0,0,1-2.1-2.1V48.34a2.1,2.1,0,0,1,2.1-2.1h3.87a2.1,2.1,0,0,1,2.1,2.1v3.87A2.1,2.1,0,0,1,28.41,54.31Zm-3.87-7.19a1.23,1.23,0,0,0-1.22,1.22v3.87a1.23,1.23,0,0,0,1.22,1.22h3.87a1.23,1.23,0,0,0,1.22-1.22V48.34a1.23,1.23,0,0,0-1.22-1.22Z" transform="translate(-22.44 -26.45)"/><path class="cls-1" d="M28.41,44.42H24.54a2.1,2.1,0,0,1-2.1-2.1V38.45a2.1,2.1,0,0,1,2.1-2.1h3.87a2.1,2.1,0,0,1,2.1,2.1v3.87A2.1,2.1,0,0,1,28.41,44.42Zm-3.87-7.19a1.23,1.23,0,0,0-1.22,1.22v3.87a1.23,1.23,0,0,0,1.22,1.22h3.87a1.23,1.23,0,0,0,1.22-1.22V38.45a1.23,1.23,0,0,0-1.22-1.22Z" transform="translate(-22.44 -26.45)"/><path class="cls-1" d="M28.41,34.52H24.54a2.1,2.1,0,0,1-2.1-2.1V28.55a2.1,2.1,0,0,1,2.1-2.1h3.87a2.1,2.1,0,0,1,2.1,2.1v3.87A2.1,2.1,0,0,1,28.41,34.52Zm-3.87-7.19a1.23,1.23,0,0,0-1.22,1.22v3.87a1.23,1.23,0,0,0,1.22,1.22h3.87a1.23,1.23,0,0,0,1.22-1.22V28.55a1.23,1.23,0,0,0-1.22-1.22Z" transform="translate(-22.44 -26.45)"/><rect class="cls-1" x="11.14" y="3.6" width="34.28" height="0.88"/><rect class="cls-1" x="11.14" y="13.49" width="34.28" height="0.88"/><rect class="cls-1" x="11.14" y="23.38" width="34.28" height="0.88"/><rect class="cls-1" x="11.14" y="33.28" width="34.28" height="0.88"/></svg>